<svg xml:space="preserve" style="enable-background:new 0 0 1024 1024;" viewBox="0 0 1024 1024" y="0px" x="0px" xmlns:xlink="http://www.w3.org/1999/xlink" xmlns="http://www.w3.org/2000/svg" id="图层_1" version="1.1">
<style type="text/css">
	.st0{fill:#FEA92E;stroke:#6A3906;stroke-width:6;stroke-miterlimit:10;}
	.st1{clip-path:url(#XMLID_2_);fill:#006934;}
	.st2{clip-path:url(#XMLID_3_);fill:#006934;}
	.st3{clip-path:url(#XMLID_4_);fill:#006934;}
	.st4{clip-path:url(#XMLID_5_);fill:#006934;}
	.st5{fill:#FFCA5F;}
	.st6{clip-path:url(#SVGID_2_);fill:#FEA92E;}
	.st7{clip-path:url(#SVGID_4_);fill:#DC8815;}
	.st8{clip-path:url(#SVGID_6_);fill:#FEA92E;}
	.st9{clip-path:url(#SVGID_8_);fill:#FFEDB4;}
	.st10{fill:none;stroke:#6A3906;stroke-width:6;stroke-miterlimit:10;}
	.st11{fill:#BA8C64;stroke:#6A3906;stroke-width:6;stroke-miterlimit:10;}
	.st12{fill:#6A3906;}
</style>
<g>
	<g>
		<path d="M665.1,111.3c-13.4,3.8-25.9,1.4-27.9-5.4c-1.9-6.7,7.5-15.3,20.9-19.1c13.4-3.8,27.9,5.4,27.9,5.4
			S678.5,107.5,665.1,111.3z" class="st0"></path>
		<path d="M655.7,84.5c-3.5,13.6-11.7,23.1-18.5,21.4c-6.8-1.7-9.6-14.1-6.1-27.7s18.5-21.4,18.5-21.4
			S659.2,70.9,655.7,84.5z" class="st0"></path>
		<path d="M663.9,96.7c-9.8,10.1-21.8,14.2-26.8,9.3s-1.2-17,8.6-27c9.8-10.1,26.8-9.3,26.8-9.3S673.7,86.6,663.9,96.7z" class="st0"></path>
		<path d="M642.5,78.1c3.8,13.4,1.4,25.9-5.4,27.9c-6.7,1.9-15.3-7.5-19.1-20.9s5.4-27.9,5.4-27.9
			S638.7,64.6,642.5,78.1z" class="st0"></path>
		<path d="M627.9,79.2c10.1,9.8,14.2,21.8,9.3,26.8c-4.9,5-17,1.2-27-8.6s-9.3-26.8-9.3-26.8S617.8,69.5,627.9,79.2z" class="st0"></path>
	</g>
	<g>
		<path d="M321.3,133.3c-7.6,7.5-16.8,10.4-20.6,6.6c-3.7-3.8-0.6-13,7-20.4c7.6-7.5,20.6-6.6,20.6-6.6
			S328.9,125.9,321.3,133.3z" class="st0"></path>
		<path d="M305.2,118.9c2.6,10.3,0.6,19.7-4.5,21.1c-5.2,1.4-11.6-5.9-14.2-16.2c-2.6-10.3,4.5-21.1,4.5-21.1
			S302.6,108.5,305.2,118.9z" class="st0"></path>
		<path d="M315.2,124c-2.9,10.3-9.4,17.4-14.5,16c-5.1-1.4-7-10.9-4.2-21.2c2.9-10.3,14.5-16,14.5-16
			S318.1,113.7,315.2,124z" class="st0"></path>
		<path d="M294.1,119.5c7.5,7.6,10.4,16.8,6.6,20.6c-3.8,3.7-13,0.6-20.4-7c-7.5-7.6-6.6-20.6-6.6-20.6
			S286.6,111.8,294.1,119.5z" class="st0"></path>
		<path d="M284.7,125.5c10.3,2.9,17.4,9.4,16,14.5c-1.4,5.1-10.9,7-21.2,4.2c-10.3-2.9-16-14.5-16-14.5
			S274.4,122.7,284.7,125.5z" class="st0"></path>
	</g>
	<g>
		<defs>
			<path d="M377.2,278.5c-42.9-35.3-85.4-30.2-102.4-9.5c-17.1,20.7-11.3,65.2,31.5,100.5s130.2,67.3,147.3,46.6
				C470.6,395.4,420,313.8,377.2,278.5z" id="XMLID_14_"></path>
		</defs>
		<use style="overflow:visible;fill:#70CE49;" xlink:href="#XMLID_14_"></use>
		<clipPath id="XMLID_2_">
			<use style="overflow:visible;" xlink:href="#XMLID_14_"></use>
		</clipPath>
		<path d="M469.5,411c0,0-117.7-153.3-197.8-150.1c0,0,46.5-53.8,50.5-54.1c4-0.3,206,140.1,206,140.1L469.5,411z" class="st1"></path>
		<use style="overflow:visible;fill:none;stroke:#6A3906;stroke-width:6;stroke-miterlimit:10;" xlink:href="#XMLID_14_"></use>
	</g>
	<g>
		<defs>
			<path d="M352.3,172.6c-11.9-32.8-36.6-43.6-52.4-37.8c-15.8,5.8-26.9,31.6-15,64.4s49,77.9,64.8,72.2
				C365.5,265.6,364.2,205.4,352.3,172.6z" id="XMLID_15_"></path>
		</defs>
		<use style="overflow:visible;fill:#70CE49;" xlink:href="#XMLID_15_"></use>
		<clipPath id="XMLID_3_">
			<use style="overflow:visible;" xlink:href="#XMLID_15_"></use>
		</clipPath>
		<path d="M359.9,273.7c0,0-14.8-120.5-59.1-144.3c0,0,42.3-14.3,44.6-13.1c2.3,1.1,66.8,141.5,66.8,141.5L359.9,273.7z" class="st2"></path>
		<use style="overflow:visible;fill:none;stroke:#6A3906;stroke-width:6;stroke-miterlimit:10;" xlink:href="#XMLID_15_"></use>
	</g>
	<g>
		<defs>
			<path d="M662.7,190.5c15.5-51.9-5.2-88.1-30.3-95.6s-62.9,14.5-78.3,66.4s-11.1,142.4,14,149.9
				S647.2,242.4,662.7,190.5z" id="XMLID_35_"></path>
		</defs>
		<use style="overflow:visible;fill:#70CE49;" xlink:href="#XMLID_35_"></use>
		<clipPath id="XMLID_4_">
			<use style="overflow:visible;" xlink:href="#XMLID_35_"></use>
		</clipPath>
		<path d="M578.6,323.6c0,0,93.1-163.9,59.9-234.5c0,0,66,21.4,67.7,24.9s-47.7,238.2-47.7,238.2L578.6,323.6z" class="st3"></path>
		<use style="overflow:visible;fill:none;stroke:#6A3906;stroke-width:6;stroke-miterlimit:10;" xlink:href="#XMLID_35_"></use>
	</g>
	<g>
		<defs>
			<path d="M595.2,394.4c0-70.3-39.2-107.7-73.2-107.7s-72.8,41.4-72.8,111.7s39,181.3,73,181.3
				S595.2,464.7,595.2,394.4z" id="XMLID_34_"></path>
		</defs>
		<use style="overflow:visible;fill:#70CE49;" xlink:href="#XMLID_34_"></use>
		<clipPath id="XMLID_5_">
			<use style="overflow:visible;" xlink:href="#XMLID_34_"></use>
		</clipPath>
		<path d="M540,591.3c0,0,55-238.4-12.5-314c0,0,90,2.1,93.5,5.8s29,314,29,314L540,591.3z" class="st4"></path>
		<use style="overflow:visible;fill:none;stroke:#6A3906;stroke-width:6;stroke-miterlimit:10;" xlink:href="#XMLID_34_"></use>
	</g>
	<g>
		<g>
			<g>
				<path d="M667.8,777.8H391c-9.1,0-15.7-6.5-13.6-13.2c-19.3-61.2-5-119.6,56.7-174
					c2.1-6.3,9.5-10.7,18-10.7h145.2c8.1,0,15.2,4.1,17.4,10c67.7,55,88.1,113.5,65.6,175.3C682.7,771.5,676.5,777.8,667.8,777.8z" class="st5" id="XMLID_13_"></path>
			</g>
			<g>
				<defs>
					<path d="M667.8,777.8H391c-9.1,0-15.7-6.5-13.6-13.2c-19.3-61.2-5-119.6,56.7-174c2.1-6.3,9.5-10.7,18-10.7
						h145.2c8.1,0,15.2,4.1,17.4,10c67.7,55,88.1,113.5,65.6,175.3C682.7,771.5,676.5,777.8,667.8,777.8z" id="SVGID_1_"></path>
				</defs>
				<clipPath id="SVGID_2_">
					<use style="overflow:visible;" xlink:href="#SVGID_1_"></use>
				</clipPath>
				<path d="M523.9,549.8c0,0-49.8,102-29.8,143c20,41-32,149-22,183s290,0,294-18s0-310-14-312
					S523.9,549.8,523.9,549.8z" class="st6"></path>
			</g>
			<g>
				<defs>
					<path d="M667.8,777.8H391c-9.1,0-15.7-6.5-13.6-13.2c-19.3-61.2-5-119.6,56.7-174c2.1-6.3,9.5-10.7,18-10.7
						h145.2c8.1,0,15.2,4.1,17.4,10c67.7,55,88.1,113.5,65.6,175.3C682.7,771.5,676.5,777.8,667.8,777.8z" id="SVGID_3_"></path>
				</defs>
				<clipPath id="SVGID_4_">
					<use style="overflow:visible;" xlink:href="#SVGID_3_"></use>
				</clipPath>
				<path d="M586.2,594.8c0,0-24,57.4,6,98s-21,145.6-15,162.1s195-10.5,198-46.5S644.7,554.9,644.7,554.9L586.2,594.8
					L586.2,594.8" class="st7"></path>
			</g>
			<g>
				<defs>
					<path d="M667.8,777.8H391c-9.1,0-15.7-6.5-13.6-13.2c-19.3-61.2-5-119.6,56.7-174c2.1-6.3,9.5-10.7,18-10.7
						h145.2c8.1,0,15.2,4.1,17.4,10c67.7,55,88.1,113.5,65.6,175.3C682.7,771.5,676.5,777.8,667.8,777.8z" id="SVGID_5_"></path>
				</defs>
				<clipPath id="SVGID_6_">
					<use style="overflow:visible;" xlink:href="#SVGID_5_"></use>
				</clipPath>
				<path d="M435.4,692.8c0,0,5,59.7,17.7,28s4-54,2.3-58C453.8,658.8,436.4,662.8,435.4,692.8z" class="st8"></path>
			</g>
			<g>
				<defs>
					<path d="M667.8,777.8H391c-9.1,0-15.7-6.5-13.6-13.2c-19.3-61.2-5-119.6,56.7-174c2.1-6.3,9.5-10.7,18-10.7
						h145.2c8.1,0,15.2,4.1,17.4,10c67.7,55,88.1,113.5,65.6,175.3C682.7,771.5,676.5,777.8,667.8,777.8z" id="SVGID_7_"></path>
				</defs>
				<clipPath id="SVGID_8_">
					<use style="overflow:visible;" xlink:href="#SVGID_7_"></use>
				</clipPath>
				<path d="M504.7,602.7c0,0-7,20.7,3,29s10.3-31.3,10.3-31.3S508.7,595.7,504.7,602.7z" class="st9"></path>
			</g>
			<g>
				<path d="M667.8,777.8H391c-9.1,0-15.7-6.5-13.6-13.2c-19.3-61.2-5-119.6,56.7-174
					c2.1-6.3,9.5-10.7,18-10.7h145.2c8.1,0,15.2,4.1,17.4,10c67.7,55,88.1,113.5,65.6,175.3C682.7,771.5,676.5,777.8,667.8,777.8z" class="st10" id="XMLID_6_"></path>
			</g>
		</g>
		<path d="M611.7,594.8H439.3c-8.3,0-15-6.7-15-15l0,0c0-8.3,6.7-15,15-15h172.4c8.3,0,15,6.7,15,15l0,0
			C626.7,588.1,620,594.8,611.7,594.8z" class="st11"></path>
	</g>
	<polygon points="438.7,485.8 466.8,478.8 444.3,446.4 452.9,470.6 424,465.9 451.9,475.1" class="st12"></polygon>
	<polygon points="444.2,331.4 472.3,324.4 449.8,292 458.4,316.2 429.5,311.4 457.4,320.6" class="st12"></polygon>
	<polygon points="538.3,161.3 566.4,154.3 543.9,121.9 552.6,146.1 523.6,141.3 551.5,150.5" class="st12"></polygon>
	<polygon points="475.6,440.6 495.2,419.2 458.6,404.6 479.1,420 452.4,432.1 480.7,424.4" class="st12"></polygon>
	<polygon points="403.3,413.6 422.9,392.2 386.3,377.6 406.8,393 380.1,405.1 408.4,397.4" class="st12"></polygon>
	<polygon points="495.2,290.8 519.3,307 528.2,268.6 516.1,291.2 500.2,266.5 512,293.4" class="st12"></polygon>
	<polygon points="542.6,254.5 566.7,270.6 575.6,232.3 563.5,254.8 547.6,230.2 559.4,257.1" class="st12"></polygon>
	<polygon points="583,442.1 575.6,470.1 614.8,466 589.5,461.9 607.5,438.8 586.1,458.8" class="st12"></polygon>
	<polygon points="544.2,420.9 536.8,448.9 576,444.8 550.7,440.7 568.7,417.6 547.3,437.6" class="st12"></polygon>
	<polygon points="621.4,233.7 603.2,256.3 640.7,268.5 619.2,254.5 645.2,240.8 617.4,250.2" class="st12"></polygon>
	<polygon points="594.3,325.3 586.9,353.3 626.1,349.2 600.8,345.1 618.9,322 597.4,342" class="st12"></polygon>
	<polygon points="660.3,160.8 653,188.8 692.1,184.7 666.8,180.6 684.9,157.5 663.4,177.5" class="st12"></polygon>
	<polygon points="502.6,532.1 522.2,510.7 485.6,496.2 506.1,511.5 479.3,523.6 507.7,515.9" class="st12"></polygon>
	<polygon points="494.2,364.1 516.5,382.6 529.3,345.3 514.9,366.6 501.6,340.5 510.6,368.4" class="st12"></polygon>
	<polygon points="595.2,181.2 617.5,199.7 630.3,162.4 615.9,183.6 602.6,157.5 611.7,185.4" class="st12"></polygon>
	<polygon points="382.6,260.5 378.1,289.1 416.7,281.2 391.1,279.6 406.8,254.9 387.4,276.9" class="st12"></polygon>
	<polygon points="326.7,381 350.6,364.5 318.2,342.1 334.7,361.7 306,367.4 335.3,366.3" class="st12"></polygon>
	<polygon points="262,311.5 285.8,295 253.5,272.6 270,292.2 241.2,297.9 270.5,296.7" class="st12"></polygon>
	<polygon points="295.8,231.6 312.8,219.8 289.7,203.8 301.5,217.8 281,221.9 301.9,221.1" class="st12"></polygon>
	<polygon points="350.6,188.1 354.3,208.4 378.4,193.9 360.8,199 365.5,178.6 357.7,198" class="st12"></polygon>
	<polygon points="328.3,230.1 332,250.4 356.1,235.9 338.5,241 343.2,220.6 335.4,240" class="st12"></polygon>
	<polygon points="305.3,190 322.3,178.3 299.2,162.3 311,176.2 290.5,180.3 311.4,179.5" class="st12"></polygon>
</g>
</svg>
