<svg xml:space="preserve" style="enable-background:new 0 0 1200 1200;" viewBox="0 0 1200 1200" y="0px" x="0px" xmlns:xlink="http://www.w3.org/1999/xlink" xmlns="http://www.w3.org/2000/svg" id="打工人" version="1.1">
<style type="text/css">
	.st0{fill:#E9EDF0;}
	.st1{clip-path:url(#SVGID_2_);}
	.st2{fill:#7F47F0;}
	.st3{fill:#FF8119;}
	.st4{fill:#40CCF5;}
	.st5{clip-path:url(#SVGID_4_);fill:#072D4D;}
	.st6{opacity:0.9;clip-path:url(#SVGID_4_);fill:#071B33;}
	.st7{opacity:0.6;clip-path:url(#SVGID_4_);}
	.st8{fill-rule:evenodd;clip-rule:evenodd;fill:#FFFFFF;}
	.st9{clip-path:url(#SVGID_4_);}
	.st10{fill:#FFFFFF;}
	.st11{fill:#2697FA;}
	.st12{clip-path:url(#SVGID_4_);fill:#40CCF5;}
	.st13{opacity:0.8;clip-path:url(#SVGID_4_);fill:#FFFFFF;}
	.st14{fill:#072D4D;}
	.st15{fill:#F54431;}
	.st16{fill:#2E72FA;}
	.st17{fill:#F7CA31;}
	.st18{fill:#9FB7C7;}
	.st19{clip-path:url(#SVGID_6_);fill:#A3BAC9;}
	.st20{clip-path:url(#SVGID_6_);}
	.st21{fill:#A63700;}
	.st22{fill:#093C66;}
	.st23{fill:#2EA8FA;}
	.st24{fill:#1A1715;}
</style>
<rect height="1200" width="1200" class="st0"></rect>
<g>
	<defs>
		<rect height="1200" width="1200" id="SVGID_1_"></rect>
	</defs>
	<clipPath id="SVGID_2_">
		<use style="overflow:visible;" xlink:href="#SVGID_1_"></use>
	</clipPath>
	<g class="st1" id="head_6_">
		<path d="M623.43,80.08l-78.56,132.07c-1,1.65-2.65,2.63-4.88,2.93c-1.15,0.11-2.35-0.01-3.53-0.44
			c-0.77-0.28-1.56-0.75-2.35-1.39l-37.91-31.53c-2.08-1.73-5.05-2.11-7.32-0.96l-31.56,16.06c-1.79,0.96-3.77,1.03-5.93,0.24
			c-0.9-0.33-1.63-0.74-2.2-1.22c-1.17-0.92-1.98-2-2.42-3.33c-0.44-1.31-0.46-2.58,0-3.83l10.38-28.53
			c0.87-2.39,2.65-4.35,5.04-5.58l105.3-53.91c1.13-0.58,0.36-2.28-0.82-1.82l-111.91,43.6c-1.08,0.32-2.32,0.07-3.2-0.67
			l-34.65-28.86c-2.28-1.8-3.09-4-2.35-6.62c0.75-2.51,2.54-3.93,5.36-4.24l195.73-31.71c1.27-0.18,2.47-0.03,3.67,0.4
			c1.42,0.52,2.56,1.33,3.44,2.42C624.56,75.47,624.74,77.79,623.43,80.08L623.43,80.08z" class="st2"></path>
		<path d="M1094.77,292.38l-16.56-58.16c-1.06-3.72-4.17-6.5-7.99-7.13l-63.32-10.43c-0.57-0.09-0.51-0.94,0.07-0.95
			l60.03-1.58c2.59-0.07,4.43-2.54,3.76-5.05l-9.36-34.5c-0.56-2.05-2.62-3.31-4.7-2.86L914.5,202.28
			c-3.46,0.74-4.32,5.29-1.37,7.25l109.36,72.36c2.85,1.84,6.46,1.1,8.47-1.56l6.49-9.36l53.16,24.95
			C1092.94,297.02,1095.48,294.86,1094.77,292.38z" class="st3"></path>
		<path d="M794.92,138.66l-91.69,130.07c-0.51,0.8-1.35,1.22-2.29,1.17c-0.94-0.05-1.74-0.44-2.29-1.18l-30.69-46.1
			c-0.97-1.58-2.69-2.49-4.55-2.7c-1.87-0.22-3.66,0.39-5.02,1.73l-18.78,17.8c-0.86,0.78-1.93,0.96-2.96,0.55
			c-1.04-0.41-1.69-1.38-1.63-2.55l-0.06-50.36c-0.02-1.88-0.75-3.56-2.21-4.81l-26.41-22.51c-0.9-0.75-1.2-1.82-0.79-2.86
			c0.29-1.04,1.15-1.82,2.33-1.87l184.44-20.62c1.06-0.18,2.09,0.34,2.63,1.31C795.5,136.69,795.56,137.75,794.92,138.66
			L794.92,138.66z" class="st4"></path>
		<g>
			<defs>
				<path d="M768.99,915.76l262.55-64.24c8.92-2.18,15.21-10.16,15.25-19.34l1.89-460.54
					c0.02-5.76-4.05-10.73-9.71-11.83L495.21,254.1c-8.12-1.58-16.53-0.6-24.07,2.8L147.94,398.54c-4.38,1.92-7.2,6.26-7.18,11.04
					l1.89,439.86c0.04,9.96,7.4,18.36,17.26,19.73l209.23,28.89l361.67,26L768.99,915.76z" id="SVGID_3_"></path>
			</defs>
			<clipPath id="SVGID_4_">
				<use style="overflow:visible;" xlink:href="#SVGID_3_"></use>
			</clipPath>
			<path d="M758.99,924.76l285.82-66.74c2.08-0.52,3.92-12.22,3.92-12.22V360.7L495.21,253.1
				c-8.12-1.58-16.53-0.6-24.07,2.8l-330.41,144.8v475.1l230.42,28.27L758.99,924.76z" class="st5"></path>
			<path d="M382.87,901.77L158.3,870.14c-6.19-0.87-7.09-9.44-1.21-11.58l311.26-113.18
				c10.01-3.66,20.81-4.56,31.29-2.62l532.63,97.97c6.21,1.14,6.67,9.86,0.62,11.65l-29.21,8.64l-265.85,65.24L382.87,901.77z" class="st6"></path>
			<g class="st7">
				<path d="M280.04,382.58v39.12c0,1.43,1.44,2.41,2.78,1.89l29.31-11.58c0.77-0.31,1.28-1.05,1.28-1.89v-40.01
					c0-1.46-1.49-2.44-2.83-1.87l-29.31,12.48C280.53,381.04,280.04,381.77,280.04,382.58z" class="st8"></path>
				<path d="M230.8,444.15l29.33-11.59c0.77-0.3,1.28-1.05,1.28-1.88v-38.45c0-1.45-1.48-2.42-2.81-1.86l-29.33,12.49
					c-0.74,0.32-1.23,1.05-1.23,1.86v37.56C228.04,443.7,229.48,444.68,230.8,444.15z" class="st8"></path>
				<path d="M179.79,464.31l29.35-11.6c0.77-0.3,1.27-1.04,1.27-1.87v-36.92c0-1.44-1.47-2.41-2.8-1.85l-29.35,12.49
					c-0.74,0.32-1.22,1.04-1.22,1.85v36.02C177.04,463.86,178.47,464.84,179.79,464.31z" class="st8"></path>
			</g>
			<g class="st9">
				<path d="M813,644c-30.82,0-62.91-12.89-64.26-13.44c-3.07-1.25-4.55-4.75-3.3-7.82c1.25-3.07,4.75-4.55,7.81-3.3
					l0,0C753.57,619.57,784.57,632,813,632c3.31,0,6,2.69,6,6S816.31,644,813,644z" class="st10"></path>
				<path d="M813,647c-31.39,0-64.01-13.1-65.39-13.66c-2.23-0.9-3.97-2.62-4.9-4.84c-0.94-2.21-0.95-4.66-0.05-6.89
					c1.87-4.6,7.13-6.82,11.72-4.95c0.3,0.12,30.88,12.34,58.62,12.34c4.96,0,9,4.04,9,9S817.96,647,813,647z" class="st10"></path>
			</g>
			<g class="st9">
				<path d="M921,608c-16.02,0-29-12.98-29-29v-22c0-16.02,12.98-29,29-29s29,12.98,29,29v22
					C950,595.02,937.02,608,921,608z" class="st10"></path>
				<g>
					<polygon points="923,538 957.62,544.15 925.31,568" class="st10"></polygon>
					<path d="M925.31,578c-1.41,0-2.83-0.3-4.16-0.91c-3.31-1.51-5.53-4.7-5.81-8.33l-2.31-30
						c-0.24-3.08,0.97-6.1,3.26-8.18c2.29-2.08,5.42-2.97,8.46-2.43l34.62,6.15c3.93,0.7,7.08,3.67,7.99,7.57s-0.58,7.95-3.8,10.33
						l-32.31,23.85C929.5,577.34,927.41,578,925.31,578z" class="st10"></path>
				</g>
			</g>
			<g class="st9">
				<path d="M646,556.95c-16.57,0-30-13.43-30-30V503.9c0-16.57,13.43-30,30-30s30,13.43,30,30v23.05
					C676,543.52,662.57,556.95,646,556.95z" class="st10"></path>
				<g>
					<polygon points="648.1,484 682.71,490.15 650.4,514" class="st10"></polygon>
					<path d="M650.4,524c-1.41,0-2.83-0.3-4.16-0.91c-3.31-1.51-5.53-4.7-5.81-8.33l-2.31-30
						c-0.24-3.08,0.97-6.1,3.26-8.18c2.29-2.08,5.42-2.97,8.46-2.43l34.62,6.15c3.93,0.7,7.08,3.67,7.99,7.57s-0.58,7.95-3.8,10.33
						l-32.31,23.85C654.59,523.34,652.5,524,650.4,524z" class="st10"></path>
				</g>
			</g>
			<g class="st9">
				<g>
					<path d="M207.95,526.77c0-1.56,0.95-2.97,2.4-3.55l51.76-20.65c11.88-4.74,21.83-7.48,29.83-8.21
						c8-0.73,14.4,0.54,19.2,3.82c4.8,3.28,8.23,8.57,10.29,15.86c2.06,7.29,3.09,16.68,3.09,28.16c0,12.4-1.14,23.29-3.43,32.67
						c-2.29,9.39-5.94,17.73-10.97,25.02c-5.03,7.29-11.51,13.66-19.43,19.09c-7.92,5.44-17.45,10.38-28.57,14.81l-17.02,6.79
						c-1.45,0.58-2.4,1.98-2.4,3.55v53.33c0,1.56-0.95,2.97-2.4,3.55l-27.1,10.81c-2.51,1-5.23-0.85-5.23-3.55V526.77z
						 M257.55,602.28c5.94-2.37,10.89-4.85,14.86-7.43c3.96-2.58,7.2-5.65,9.71-9.21c2.51-3.55,4.3-7.59,5.37-12.12
						c1.06-4.53,1.6-9.98,1.6-16.36c0-6.01-0.54-10.9-1.6-14.67c-1.07-3.77-2.86-6.42-5.37-7.97c-2.51-1.55-5.79-2.06-9.83-1.55
						c-4.04,0.52-8.95,1.93-14.74,4.24l-12.45,4.97c-1.45,0.58-2.4,1.98-2.4,3.55v56.85c0,2.7,2.73,4.55,5.23,3.55L257.55,602.28z" class="st11"></path>
				</g>
				<g>
					<path d="M370.69,651.2c-6.48,2.59-12.65,4.58-18.52,5.98c-3.92,0.94-7.45,1.66-10.6,2.17
						c-2.31,0.37-4.4-1.43-4.4-3.77v-26.38c0-1.95,1.46-3.59,3.41-3.79c1.03-0.11,2.13-0.24,3.3-0.41c2.57-0.35,5.28-0.87,8.13-1.54
						c2.85-0.67,5.72-1.45,8.63-2.34c2.9-0.89,5.64-1.85,8.21-2.88c3.46-1.38,6.23-2.68,8.3-3.91c2.07-1.23,3.66-2.49,4.78-3.81
						c1.12-1.31,1.84-2.77,2.18-4.38c0.34-1.6,0.5-3.47,0.5-5.61c0-1.47-0.2-2.73-0.59-3.78c-0.39-1.05-1.17-1.84-2.35-2.37
						c-1.17-0.53-2.85-0.87-5.03-1c-2.18-0.13-5.11,0-8.8,0.4c-6.37,0.8-11.59,0.92-15.67,0.34c-4.08-0.58-7.29-2-9.64-4.28
						c-2.35-2.27-3.97-5.4-4.86-9.39c-0.9-3.99-1.34-9.12-1.34-15.4c0-8.15,1.06-15.42,3.18-21.82c2.12-6.39,5.17-12.09,9.13-17.08
						c3.96-4.99,8.77-9.31,14.41-12.97c5.64-3.65,11.93-6.86,18.85-9.63c7.26-2.9,13.3-4.8,18.1-5.72c2.94-0.56,5.58-0.94,7.93-1.14
						c2.23-0.19,4.14,1.57,4.14,3.81v24.33c0,1.93-1.45,3.55-3.37,3.79c-0.59,0.08-1.23,0.17-1.91,0.28
						c-2.29,0.38-4.78,0.87-7.46,1.47c-2.68,0.6-5.42,1.29-8.21,2.07c-2.79,0.78-5.36,1.64-7.71,2.57
						c-5.36,2.14-9.19,4.44-11.48,6.89c-2.29,2.45-3.44,5.35-3.44,8.69c0,1.6,0.19,2.86,0.59,3.78c0.39,0.92,1.2,1.56,2.43,1.94
						c1.23,0.38,2.96,0.52,5.2,0.43c2.23-0.09,5.14-0.31,8.72-0.67c7.26-0.62,13.04-0.46,17.35,0.5c4.3,0.96,7.57,2.73,9.8,5.31
						c2.23,2.59,3.69,6.08,4.36,10.49c0.67,4.41,1.01,9.76,1.01,16.04c0,6.95-0.78,13.44-2.35,19.48
						c-1.57,6.04-4.16,11.65-7.79,16.84c-3.63,5.19-8.46,9.99-14.5,14.4C387.28,643.58,379.74,647.59,370.69,651.2z" class="st11"></path>
				</g>
			</g>
			<path d="M913.18,609.18c-2.32-2.36-0.97-5.34,2.31-5.79c14.84-2.03,50.17-6.02,53,12.16
				C971.06,632.09,941.33,637.89,913.18,609.18z" class="st12"></path>
			<path d="M653,557.87c3.08-1.82,2.79-5.3-0.51-6.68c-14.93-6.27-52.25-20.84-59.01-2.14
				C586.55,568.22,615.58,579.96,653,557.87z" class="st12"></path>
			<path d="M483.98,698.86c-2.49,0-4.5-2.01-4.5-4.5V284.25c0-2.49,2.01-4.5,4.5-4.5s4.5,2.01,4.5,4.5v410.11
				C488.48,696.84,486.46,698.86,483.98,698.86z" class="st13"></path>
		</g>
		<path d="M1037.5,354.39c2.2,0.45,3.36-2.5,1.44-3.67l-147.76-90.16c-6.25-3.89-13.15-6.6-20.38-7.99l-484.68-93.3
			c-2.08-0.4-3.27,2.28-1.59,3.56c0,0,65.47,53.1,87.25,71.1c5.76,4.62,12.78,6.77,24.87,9.42
			C584.34,261.36,966.88,339.9,1037.5,354.39z" class="st14"></path>
		<path d="M149.32,392.86c-1.97,0.88-3.75-1.55-2.31-3.16L259.6,264.27c2.53-2.81,6.42-3.96,10.07-2.97l102.65,27.91
			c1.81,0.49,2.01,2.99,0.29,3.76L149.32,392.86z" class="st14"></path>
		<path d="M579.86,196.31l107.92,89.48c2.24,1.9,3.53,4.69,3.53,7.63l2,147.85c0,3.19,3.55,5.09,6.21,3.34l39.32-26
			c1.66-1.1,3.87-0.81,5.19,0.67l37.24,41.68c1.39,1.55,3.73,1.78,5.4,0.53l35.46-26.81c1.52-1.15,3.63-1.07,5.05,0.19l48.51,42.66
			c2.65,2.33,6.79,0.34,6.64-3.18l-5.4-146.03c-0.13-2.92-1.52-5.64-3.83-7.44l-117.61-89.34c-2.47-1.88-5.35-3.15-8.4-3.73
			L579.86,196.31z" class="st11"></path>
		<path d="M127.18,230.82l84.34,134.04l25.02-10.73l20.37-27.38c1.12-1.62,2.98-2.49,4.97-2.61
			c1.99-0.12,3.85,0.62,5.22,2.11l9.27,9.75l16.7-7.52l0.75-37.53c0.12-1.99,0.99-3.73,2.61-4.97l29.2-22.37
			c0.99-0.75,1.37-1.86,0.99-2.98c-0.25-1.12-1.12-1.99-2.36-2.11l-194.11-32.06c-1.12-0.25-2.24,0.25-2.86,1.24
			C126.68,228.7,126.56,229.82,127.18,230.82L127.18,230.82z" class="st15"></path>
		<path d="M432.37,221.44l-176.75-71.12c-1.97-0.82-4.22-0.46-5.84,0.93c-1.61,1.39-2.31,3.57-1.79,5.63l42.25,172.96
			l86.02-38.17c1.42-0.64,2.34-2.05,2.34-3.61v-6.4c0-1.49-0.59-2.93-1.65-3.98l-62.79-62.79c-1.75-1.75,0.61-4.49,2.6-3.02
			l70.61,52.14c2.09,1.56,4.98,1.49,6.98-0.18l39.44-32.86c1.51-1.26,2.25-3.22,1.96-5.16C435.47,223.85,434.18,222.2,432.37,221.44
			L432.37,221.44z M432.37,221.44" class="st16"></path>
	</g>
	<g class="st1" id="body_6_">
		<polygon points="737.73,1159.86 742.72,1209.87 827.72,1209.87 821.73,1157.86" class="st17"></polygon>
		<g>
			<path d="M760.48,1127.67c89.03-2.47,182.52,17.35,211.37,24.07c5.16,1.2,10.36-1.88,11.78-6.98
				c6.35-22.95,18.84-82.54-15.66-102.76c-21.34,4.79-113.31,6.68-209.69,1.75L760.48,1127.67z" class="st10"></path>
			<path d="M974.13,1156c-1.05,0-2.12-0.12-3.19-0.37c-26.83-6.25-121.28-26.44-210.35-23.97
				c-1.06,0.02-2.09-0.37-2.86-1.09c-0.77-0.73-1.22-1.74-1.25-2.8l-2.2-83.92c-0.03-1.11,0.41-2.19,1.21-2.97
				c0.8-0.78,1.89-1.18,3-1.13c77.35,3.96,183,4.09,208.61-1.66c0.99-0.22,2.02-0.06,2.9,0.45c36.63,21.47,24.43,82.17,17.49,107.27
				C985.78,1151.96,980.24,1156,974.13,1156z M775.88,1123.46c85.2,0,171.35,18.44,196.87,24.39c3.09,0.72,6.17-1.11,7.01-4.16
				c2.91-10.52,7.74-31.17,7.34-51.26c-0.44-22.47-7.13-38-19.89-46.2c-23.94,4.55-111.48,6.31-204.83,1.73l1.98,75.61
				C768.2,1123.5,772.04,1123.46,775.88,1123.46z" class="st18"></path>
		</g>
		<g>
			<defs>
				<path d="M738.72,1160.86l4.5,49.01h-470.5c0,0-14.15-384.08,257-384.08c112.29,0,191.89,42.5,243.72,101.46
					c84.79,96.46,98.28,233.6,98.28,233.6h-179L738.72,1160.86z" id="SVGID_5_"></path>
			</defs>
			<clipPath id="SVGID_6_">
				<use style="overflow:visible;" xlink:href="#SVGID_5_"></use>
			</clipPath>
			<path d="M738.72,1160.86l4.5,49.01h-470.5c0,0-14.15-384.08,257-384.08c112.29,0,191.89,42.5,243.72,101.46
				c84.79,96.46,98.28,233.6,98.28,233.6h-179L738.72,1160.86z" class="st19"></path>
			<g class="st20">
				<path d="M381.55,982.87c14.38-1.96,27.8-3.57,41.35-4.9c4.78-0.47,8.53-4.28,8.97-9.06
					c1.3-14.09,4-31.99,5.11-45.05c0.22-2.56-1.98-4.65-4.53-4.31c-14.93,1.98-29.12,4.38-42.41,6.99
					c-4.24,0.84-7.46,4.31-7.98,8.61c-1.5,12.45-3.8,29.57-5.04,43.4C376.79,981.12,379,983.22,381.55,982.87z" class="st21"></path>
				<path d="M353.52,935.01C307.36,946.74,278,959,278,959s-81,87-10,52c19.51-9.62,46.62-16.89,76.79-22.39
					c4.36-0.79,7.68-4.35,8.16-8.75c1.33-12.41,3.94-27.85,5.53-40.49C358.83,936.58,356.25,934.31,353.52,935.01z" class="st22"></path>
				<path d="M464.83,924.3c-1.36,13.14-4.08,31.63-5.14,46.06c-0.18,2.43,1.84,4.46,4.27,4.29
					c19.87-1.33,35.39-2.03,44.38-2.37c4.98-0.19,9.05-4.01,9.56-8.96l4.65-44.96c0.24-2.35-1.6-4.4-3.97-4.41
					c-15.45-0.11-30.02,0.41-44.5,1.41C469.23,915.7,465.33,919.47,464.83,924.3z" class="st2"></path>
			</g>
			<g class="st20">
				<path d="M369.38,1070.55c14.66-1.57,29.3-2.8,43.28-3.77c4.9-0.34,8.83-4.17,9.28-9.06
					c1.28-14.06,3.28-31.86,4.46-44.83c0.23-2.51-1.89-4.61-4.39-4.34c-15.01,1.59-29.28,3.62-42.66,5.89
					c-4.26,0.72-7.57,4.12-8.2,8.4c-1.82,12.41-4.57,29.49-6.17,43.29C364.67,1068.67,366.83,1070.82,369.38,1070.55z" class="st23"></path>
				<path d="M340.67,1019.89c-46.4,10.38-75.17,20.05-75.17,20.05s-83.25,86.85-11.36,53.72
					c19.74-9.1,47.01-15.64,77.28-20.34c4.43-0.69,7.87-4.23,8.4-8.69c1.47-12.38,3.92-27.74,5.69-40.3
					C345.9,1021.58,343.39,1019.28,340.67,1019.89z" class="st3"></path>
				<path d="M454.3,1015.46c-1.28,13.12-3.32,31.46-4.52,45.77c-0.2,2.39,1.75,4.42,4.15,4.32
					c20.01-0.81,36.28-1.08,45.84-1.18c5.25-0.05,9.56-4.15,9.88-9.39l2.71-45.47c0.13-2.27-1.65-4.18-3.92-4.24
					c-15.47-0.38-30.06,0.57-44.58,1.18C458.86,1006.66,454.78,1010.49,454.3,1015.46z" class="st24"></path>
			</g>
		</g>
		<path d="M670.98,1081.33c-1.29,0-2.58-0.5-3.56-1.49c-40.01-40.5-50.92-100.13-51.37-102.64
			c-0.48-2.72,1.33-5.31,4.05-5.79c2.72-0.48,5.31,1.33,5.79,4.05c0.13,0.72,10.9,59.17,48.63,97.35c1.94,1.96,1.92,5.13-0.04,7.07
			C673.52,1080.85,672.25,1081.33,670.98,1081.33z" class="st10"></path>
		<g>
			<path d="M499.39,1086.19c0,0-8.09-7.08-9.11,6.07c-1.01,13.15,7.08,26.3,15.18,24.28
				c8.09-2.02,11.13-26.3,2.02-44.51c-3.04-8.09-23.12-19.94-29.34,11.13c-6.07,30.35,12.14,53.62,25.29,53.62
				c10.12,0,25.32-8.98,26.3-41.48c1.01-33.39-19.22-51.6-34.4-52.61c-12.16-0.81-36.34,9.71-35.41,53.62
				c1.01,47.55,41.48,59.69,41.48,59.69s91.61-14.49,180.6-21.9c-0.01,0.07-4.57-23.66-8.03-47.41c-3.47-23.75-5.85-47.5-5.55-47.47
				c-93.65-5.54-175.61-13.23-175.61-13.23l15.18,21.25" class="st10"></path>
			<path d="M501.42,1160c-0.39,0-0.78-0.06-1.15-0.17c-0.45-0.13-11.07-3.39-21.85-12.84
				c-9.95-8.72-21.93-24.58-22.48-50.6c-0.57-26.92,8.11-40.99,15.5-48.05c6.9-6.59,15.93-10.2,24.17-9.65
				c0.49,0.03,0.97,0.08,1.46,0.14l-7.51-10.51c-0.91-1.27-0.99-2.96-0.21-4.32c0.78-1.36,2.28-2.13,3.84-1.99
				c0.82,0.08,82.97,7.74,175.47,13.21c0.08,0.01,0.17,0.01,0.25,0.02c2.14,0.27,3.69,2.18,3.49,4.33c0,0.01,0,0.03,0,0.04
				c0.11,3.04,2.38,24.91,5.53,46.48c3.25,22.24,7.59,45.2,7.97,47.07c0.05,0.21,0.08,0.43,0.1,0.66c0.14,2.18-1.49,4.07-3.66,4.25
				c-87.81,7.31-179.39,21.72-180.31,21.86C501.83,1159.98,501.62,1160,501.42,1160z M494.04,1046.65c-4.65,0-11.28,1.94-17.08,7.48
				c-6.23,5.95-13.54,18.08-13.03,42.09c0.87,40.83,32.16,53.68,37.82,55.67c9.88-1.54,93.62-14.38,175.5-21.41
				c-0.48-2.59-1.14-6.2-1.91-10.51c-1.43-8.1-3.52-20.34-5.33-32.72c-2.02-13.8-3.49-26.36-4.19-32.61
				c-0.61-5.47-1.02-9.13-1.24-11.65c-73.73-4.42-140.27-10.16-163.46-12.23l9.33,13.06c13.33,8.51,24.01,26.96,23.27,51.58
				c-1.01,33.48-16.96,45.36-30.3,45.36c-6.31,0-13.18-3.96-18.84-10.86c-10.01-12.21-13.89-29.98-10.38-47.54
				c2.03-10.17,6.87-22.49,18.37-23.42c8.18-0.66,16.13,5.35,18.55,11.46c7.31,14.77,7.22,33.28,2.89,42.69
				c-2.33,5.06-5.42,6.77-7.61,7.32c-3.69,0.92-7.58-0.14-10.95-2.98c-6.16-5.2-9.94-15.68-9.18-25.48
				c0.46-5.98,2.43-9.72,5.87-11.12c4.75-1.94,9.35,1.91,9.86,2.35c1.66,1.45,1.83,3.98,0.38,5.64c-1.45,1.66-3.96,1.83-5.62,0.39
				c-0.44-0.37-1.13-0.76-1.56-0.89c-0.24,0.41-0.74,1.55-0.95,4.23c-0.63,8.16,2.81,15.75,6.37,18.76
				c1.39,1.18,2.69,1.62,3.85,1.34c0.4-0.1,1.33-0.82,2.28-2.9c3.48-7.57,3.37-23.46-2.87-35.94c-0.06-0.13-0.12-0.25-0.17-0.38
				c-1.08-2.87-5.96-6.88-10.5-6.5c-5.09,0.41-9.06,6.45-11.17,17.01c-3.05,15.23,0.21,30.52,8.72,40.9
				c4.07,4.97,8.8,7.93,12.65,7.93c9.76,0,21.46-9.85,22.31-37.6c0.69-22.64-8.7-37.27-18.83-44.08c-0.72-0.2-1.38-0.6-1.9-1.18
				c-3.41-1.95-6.84-3.03-9.93-3.23C494.75,1046.66,494.4,1046.65,494.04,1046.65z" class="st18"></path>
		</g>
		<path d="M758.26,1168.8c-56.92,0-69.7-7.64-73.54-14.81c-4.2-5.85-10.88-24.69-21.03-112.4
			c-5.67-48.99-9.65-96.37-9.69-96.84c-0.23-2.75,1.81-5.17,4.57-5.4c2.74-0.24,5.17,1.81,5.4,4.57
			c6.06,72.43,19.29,191.95,28.96,204.34l0.33,0.42l0.23,0.48c0.98,2.01,9.98,11.89,91.65,9.16c43.87-1.47,86.91-5.91,87.34-5.95
			c2.75-0.28,5.2,1.71,5.49,4.46c0.29,2.75-1.71,5.21-4.46,5.49c-0.43,0.04-43.78,4.52-87.99,6
			C775.45,1168.64,766.4,1168.8,758.26,1168.8z" class="st10"></path>
	</g>
</g>
</svg>
