<svg xml:space="preserve" style="enable-background:new 0 0 1200 1200;" viewBox="0 0 1200 1200" y="0px" x="0px" xmlns:xlink="http://www.w3.org/1999/xlink" xmlns="http://www.w3.org/2000/svg" id="大薯" version="1.1">
<style type="text/css">
	.st0{fill:#FCE3D7;}
	.st1{clip-path:url(#SVGID_2_);}
	.st2{fill:#F28D00;}
	.st3{fill:#F2B60C;}
	.st4{fill:#FAB90A;}
	.st5{fill:#FFD219;}
	.st6{clip-path:url(#SVGID_4_);fill:#F44F2E;}
	.st7{clip-path:url(#SVGID_4_);}
	.st8{fill:#FFFFFF;}
	.st9{clip-path:url(#SVGID_4_);fill:#FFFFFF;}
	.st10{opacity:0.27;clip-path:url(#SVGID_4_);fill:#1D0B09;}
	.st11{opacity:0.8;clip-path:url(#SVGID_4_);}
	.st12{fill-rule:evenodd;clip-rule:evenodd;fill:#FFFFFF;}
	.st13{clip-path:url(#SVGID_4_);fill:#FFD219;}
	.st14{opacity:0.9;clip-path:url(#SVGID_4_);fill:#FFFFFF;}
	.st15{fill:#F44F2E;}
	.st16{fill:#E84A2C;}
	.st17{fill:#F2AD0C;}
	.st18{fill:#FABE19;}
	.st19{fill:#25B83B;}
	.st20{clip-path:url(#SVGID_6_);fill:#FFFFFF;}
	.st21{clip-path:url(#SVGID_6_);fill:#F44F2E;}
	.st22{clip-path:url(#SVGID_6_);fill:#FFD219;}
</style>
<rect height="1200" width="1200" class="st0"></rect>
<g>
	<defs>
		<rect height="1200" width="1200" id="SVGID_1_"></rect>
	</defs>
	<clipPath id="SVGID_2_">
		<use style="overflow:visible;" xlink:href="#SVGID_1_"></use>
	</clipPath>
	<g class="st1" id="head_7_">
		<polygon points="582.47,188.92 585.98,102.13 530.02,99.87 526.86,178.22" class="st2"></polygon>
		<g>
			<path d="M447.15,152.95c0.11,1.18,0.23,4.79,0.36,10l56.35,10.85c-0.3-12.53-0.65-23.02-1-26.58
				c-0.93-9.33-8.46-43.45-14.27-65.97c-1.4-5.44-7-8.64-12.4-7.11l-34.63,9.8c-5.22,1.48-8.32,6.85-6.96,12.11
				C440.48,118.78,446.39,147.56,447.15,152.95z" class="st3"></path>
			<path d="M466.77,240.17l-0.05-0.04l-0.05-0.04c-4.49-3.71-10.88-8.95-18.19-14.92c0.21,15.46,0.39,28.44,0.52,32.67
				l27.88-11.8C473.09,244.49,469.83,242.63,466.77,240.17z" class="st3"></path>
		</g>
		<path d="M872.31,244.72c8.21,1.58,15.96,4.62,23.06,9.03l8.58,5.23c1.41-2.47,3.02-5.19,4.86-8.17
			c6.82-11.05,32.67-21.26,53.16-26.09c5.13-1.21,8.47-6.16,7.62-11.36l-2.98-18.12l-2.83-17.4c-0.92-5.69-6.45-9.42-12.07-8.15
			c-7.15,1.62-17.29,4.24-28.16,8.08c-30.11,10.66-51.1,25.33-62.4,43.63c-4.21,6.83-7.83,13.18-10.88,19.08L872.31,244.72z" class="st3"></path>
		<path d="M631.22,198.31l-1.14-42.72l13.22-61.96c1.15-5.4-2.29-10.71-7.69-11.87l-35.21-7.51
			c-5.4-1.15-10.71,2.29-11.87,7.69l-14.61,68.48l0.99,37.05L631.22,198.31z" class="st4"></path>
		<path d="M489.55,171.04l51.68,9.95l-11.17-87.24c-0.7-5.48-5.71-9.35-11.19-8.65l-29.76,3.81
			c-5.48,0.7-9.35,5.71-8.65,11.19L489.55,171.04z" class="st5"></path>
		<path d="M666,178.71V205l52,10.01v-43.72l-7.44-49.84c-0.86-5.77-6.47-9.59-12.15-8.27l-33.95,7.89
			c-5.25,1.22-8.59,6.39-7.55,11.68L666,178.71z" class="st2"></path>
		<path d="M782.26,227.39l1.6-47.42l6.16-37.81c0.88-5.42-2.77-10.55-8.19-11.47l-31.55-5.37
			c-5.47-0.93-10.65,2.77-11.55,8.24l-6.61,40.46l-2.54,43.21L782.26,227.39z" class="st3"></path>
		<path d="M827.58,236.11c10-35.52,27.96-55.85,37.77-64.79c3.72-3.39,4.36-9,1.48-13.12l-18.06-25.91
			c-3.28-4.77-9.89-5.76-14.44-2.19c-5.86,4.6-14.04,12.07-22.88,23.48c-15.97,20.61-27.86,45.41-35.03,72.68L827.58,236.11z" class="st5"></path>
		<path d="M953.74,289.37c3.21-1.48,6-2.67,8.21-3.47c1.44-0.52,2.97-0.72,4.49-0.56c7.94,0.84,19.56,2.35,28.35,3.66
			c5.3,0.79,10.29-2.73,11.31-7.99l5.69-29.42c1.08-5.57-2.69-10.93-8.3-11.78c-10.86-1.66-27.57-4.01-37.71-4.73
			c-8.11-0.58-19.33,0.65-58.93,22.07c-1.05,0.57-2.1,1.14-3.14,1.71L953.74,289.37z" class="st5"></path>
		<g>
			<defs>
				<path d="M768.99,915.76l262.55-64.24c8.92-2.18,15.21-10.16,15.25-19.34l1.89-460.54
					c0.02-5.76-4.05-10.73-9.71-11.83L495.21,254.1c-8.12-1.58-16.53-0.6-24.07,2.8L147.94,398.54c-4.38,1.92-7.2,6.26-7.18,11.04
					l1.89,439.86c0.04,9.96,7.4,18.36,17.26,19.73l209.23,28.89l361.67,26L768.99,915.76z" id="SVGID_3_"></path>
			</defs>
			<clipPath id="SVGID_4_">
				<use style="overflow:visible;" xlink:href="#SVGID_3_"></use>
			</clipPath>
			<path d="M758.99,924.76l285.82-66.74c2.08-0.52,3.92-12.22,3.92-12.22V360.7L495.21,253.1
				c-8.12-1.58-16.53-0.6-24.07,2.8l-330.41,144.8v475.1l230.42,28.27L758.99,924.76z" class="st6"></path>
			<g class="st7">
				<path d="M833.5,643.79c-0.03,0-0.06,0-0.1,0c-50.54-0.8-92.16-15.31-93.9-15.93c-3.12-1.1-4.76-4.53-3.66-7.66
					c1.1-3.12,4.53-4.76,7.66-3.66c0.53,0.19,41.67,14.48,90.1,15.24c3.31,0.05,5.96,2.78,5.9,6.09
					C839.45,641.17,836.77,643.79,833.5,643.79z" class="st8"></path>
				<path d="M833.5,646.79l-0.19,0c-50.97-0.8-93.05-15.47-94.81-16.1c-4.68-1.65-7.14-6.81-5.49-11.49
					c1.65-4.68,6.8-7.14,11.48-5.49c0.4,0.14,41.37,14.32,89.14,15.07c2.4,0.04,4.65,1.01,6.32,2.74s2.57,4,2.53,6.41
					C842.42,642.82,838.39,646.79,833.5,646.79z" class="st8"></path>
			</g>
			<path d="M921,609c-16.02,0-29-12.98-29-29v-22c0-16.02,12.98-29,29-29s29,12.98,29,29v22
				C950,596.02,937.02,609,921,609z" class="st9"></path>
			<path d="M626.46,560.95c-4.57,0-9.06-2.24-11.74-6.36c-4.22-6.48-2.39-15.15,4.08-19.37l26.8-17.47l-29.05-29.05
				c-5.47-5.47-5.47-14.33,0-19.8c5.47-5.47,14.33-5.47,19.8,0l37.86,37.86c3.83,3.83,5.71,9.12,5.15,14.51
				c-0.56,5.39-3.49,10.18-8.02,13.14l-37.23,24.27C631.73,560.21,629.08,560.95,626.46,560.95z" class="st9"></path>
			<path d="M382.87,901.77L158.3,870.14c-6.19-0.87-7.09-9.44-1.21-11.58l311.26-113.18
				c10.01-3.66,20.81-4.56,31.29-2.62l532.63,97.97c6.21,1.14,6.67,9.86,0.62,11.65l-29.21,8.64l-265.85,65.24L382.87,901.77z" class="st10"></path>
			<g class="st11">
				<path d="M280.04,382.58v39.12c0,1.43,1.44,2.41,2.78,1.89l29.31-11.58c0.77-0.31,1.28-1.05,1.28-1.89v-40.01
					c0-1.46-1.49-2.44-2.83-1.87l-29.31,12.48C280.53,381.04,280.04,381.77,280.04,382.58z" class="st12"></path>
				<path d="M230.8,444.15l29.33-11.59c0.77-0.3,1.28-1.05,1.28-1.88v-38.45c0-1.45-1.48-2.42-2.81-1.86l-29.33,12.49
					c-0.74,0.32-1.23,1.05-1.23,1.86v37.56C228.04,443.7,229.48,444.68,230.8,444.15z" class="st12"></path>
				<path d="M179.79,464.31l29.35-11.6c0.77-0.3,1.27-1.04,1.27-1.87v-36.92c0-1.44-1.47-2.41-2.8-1.85l-29.35,12.49
					c-0.74,0.32-1.22,1.04-1.22,1.85v36.02C177.04,463.86,178.47,464.84,179.79,464.31z" class="st12"></path>
			</g>
			<path d="M1072.69,408.02c-28.41,18.72-66.08,32.15-108.93,38.82c-47.94,7.46-100.83,6.6-157.21-2.57
				c-66.24-10.77-131.22-26.83-187.91-48.31c-63.22-23.3-113.38-58.13-129.67-70.14c-3.67-2.7-6.96-2.23-9.73,1.39
				c-14.98,19.51-71.79,85.45-185.76,130.99c-111.51,44.56-191.51,17.83-191.51,17.83L122,512c0,0,84.66,19.41,173.81-13.57
				c88.54-34.3,145.42-70.71,184.25-120.85c3.5-4.69,5.93-5.58,9.97-3.21c75.24,48.22,187.65,87.44,310.1,107.36
				c33.01,5.37,65.21,8.01,96.02,8.01c78.78,0,148.38-22.27,198.55-55.33L1072.69,408.02z" class="st13"></path>
			<path d="M483.98,698.86c-2.49,0-4.5-2.01-4.5-4.5V284.25c0-2.49,2.01-4.5,4.5-4.5s4.5,2.01,4.5,4.5v410.11
				C488.48,696.84,486.46,698.86,483.98,698.86z" class="st14"></path>
		</g>
		<path d="M378.21,290.64l0.8-41.3c0.88-37.64,17.79-106.32,24.37-131.81c1.39-5.37,6.89-8.59,12.25-7.16l34.87,9.27
			c5.27,1.4,8.44,6.75,7.14,12.05c-7.78,31.63-21.97,97.83-22.65,126.95l-0.26,7.27L378.21,290.64z" class="st5"></path>
		<g>
			<path d="M1037.5,354.39c2.2,0.45,3.36-2.5,1.44-3.67l-147.76-90.16c-6.25-3.89-13.15-6.6-20.38-7.99l-484.68-93.3
				c-2.08-0.4-3.27,2.28-1.59,3.56c0,0,65.47,53.1,87.25,71.1c5.76,4.62,12.78,6.77,24.87,9.42
				C584.34,261.36,966.88,339.9,1037.5,354.39z" class="st15"></path>
		</g>
		<path d="M149.32,392.86c-1.97,0.88-3.75-1.55-2.31-3.16L255.7,268.62c2.41-2.68,6.08-3.86,9.6-3.08l107.02,23.68
			c1.81,0.49,2.01,2.99,0.29,3.76L149.32,392.86z" class="st16"></path>
		<path d="M318.5,310.92c-0.17-0.98-16.95-98.66-21.77-121.79c-4.24-20.36-7.56-61.41-8.97-80.84
			c-0.4-5.54,3.79-10.34,9.33-10.69l49.9-3.22c5.48-0.35,10.22,3.77,10.62,9.24c1.52,20.76,4.55,56.35,7.65,71.23
			c3.66,17.55,21.9,111.73,21.9,111.73L321,316L318.5,310.92z" class="st17"></path>
		<path d="M285.89,338.12L263.15,214l-17.39-38.55c-2.27-5.03-0.03-10.96,5-13.23l36.46-16.44
			c5.03-2.27,10.96-0.03,13.23,5L320.85,196l21.51,117.41L285.89,338.12z" class="st5"></path>
		<path d="M232.07,355.97c-5.04-11.6-37.97-55.09-69.1-93.39c-3.47-4.27-2.84-10.54,1.41-14.04l23.18-19.04
			c4.28-3.52,10.61-2.88,14.11,1.42c19.36,23.83,66.16,82.5,76.07,104.71C277.81,335.76,232.07,355.97,232.07,355.97z" class="st18"></path>
		<path d="M579.86,196.31l107.92,89.48c2.24,1.9,3.53,4.69,3.53,7.63l2,147.85c0,3.19,3.55,5.09,6.21,3.34l39.32-26
			c1.66-1.1,3.87-0.81,5.19,0.67l37.24,41.68c1.39,1.55,3.73,1.78,5.4,0.53l35.46-26.81c1.52-1.15,3.63-1.07,5.05,0.19l48.51,42.66
			c2.65,2.33,6.79,0.34,6.64-3.18l-5.4-146.03c-0.13-2.92-1.52-5.64-3.83-7.44l-117.61-89.34c-2.47-1.88-5.35-3.15-8.4-3.73
			L579.86,196.31z" class="st19"></path>
	</g>
	<g class="st1" id="body_7_">
		<polygon points="737.73,1159.86 742.72,1209.87 827.72,1209.87 821.73,1157.86" class="st4"></polygon>
		<g>
			<defs>
				<path d="M738.72,1160.86l4.5,49.01h-470.5c0,0-14.15-384.08,257-384.08c112.29,0,191.89,42.5,243.72,101.46
					c84.79,96.46,98.28,233.6,98.28,233.6h-149L738.72,1160.86z" id="SVGID_5_"></path>
			</defs>
			<clipPath id="SVGID_6_">
				<use style="overflow:visible;" xlink:href="#SVGID_5_"></use>
			</clipPath>
			<path d="M738.72,1160.86l4.5,49.01h-470.5c0,0-14.15-384.08,257-384.08c112.29,0,191.89,42.5,243.72,101.46
				c84.79,96.46,98.28,233.6,98.28,233.6L738.72,1160.86z" class="st20"></path>
			<path d="M794.88,1165.7c-8.97-69.91-28.26-171.42-69.2-258.04c-24.44-51.71-45.31-73.82-45.52-74.04l14.4-13.88
				c0.92,0.95,22.79,23.89,48.55,78.01c23.45,49.26,54.91,135.28,71.6,265.4L794.88,1165.7z" class="st21"></path>
			<path d="M749.87,1165.63c-13.32-109.37-36.07-191.69-52.82-241.49c-18.15-53.96-33.34-82.43-33.49-82.71l17.6-9.49
				c0.64,1.19,15.96,29.82,34.62,85.17c17.12,50.79,40.37,134.72,53.94,246.11L749.87,1165.63z" class="st21"></path>
			<path d="M743.22,1219.87H263.09l-0.35-9.63c-0.08-2.18-1.84-54.26,9.46-120.67c6.65-39.11,16.49-75.01,29.24-106.7
				c16.09-39.98,36.9-73.39,61.86-99.28c43.35-44.98,99.35-67.79,166.43-67.79c131.46,0,209.18,57.02,251.23,104.86
				c44.99,51.18,69.97,113.46,83,156.69c14.09,46.74,17.58,81.1,17.72,82.54l-19.9,1.96c-0.03-0.33-3.5-34.21-17.1-79.17
				c-12.46-41.2-36.24-100.46-78.74-148.81c-56.39-64.15-138.07-98.07-236.21-98.07c-61.42,0-112.55,20.73-151.99,61.63
				c-52.66,54.61-75.7,136.22-85.76,195.07c-8.23,48.17-9.34,89.4-9.37,107.38h460.62V1219.87z" class="st22"></path>
		</g>
		<path d="M874.95,1156.8c-0.29-2.75-2.75-4.72-5.5-4.45c-0.42,0.04-42.71,4.49-85.83,5.95
			c-80.24,2.73-89.17-7.16-90.14-9.16l-0.23-0.48l-0.33-0.42c-9.67-12.39-22.89-131.91-28.96-204.34c-0.23-2.75-2.66-4.79-5.4-4.57
			c-2.75,0.23-4.8,2.65-4.57,5.4c0.04,0.47,4.02,47.85,9.69,96.84c0.92,7.94,1.81,15.31,2.67,22.16
			c-31.14-37.71-40.34-87.63-40.46-88.29c-0.48-2.72-3.07-4.54-5.79-4.05c-2.72,0.48-4.53,3.07-4.05,5.79
			c0.44,2.52,11.36,62.15,51.37,102.64c0.35,0.35,0.75,0.62,1.16,0.85c7.46,54.64,12.65,68.44,16.14,73.29
			c3.84,7.17,16.48,14.82,72.47,14.81c8.02,0,16.92-0.16,26.82-0.49c43.47-1.48,86.07-5.96,86.5-6
			C873.25,1162.01,875.24,1159.55,874.95,1156.8z" class="st5"></path>
	</g>
</g>
</svg>
