<?xml version="1.0" standalone="no"?><!DOCTYPE svg PUBLIC "-//W3C//DTD SVG 1.1//EN" "http://www.w3.org/Graphics/SVG/1.1/DTD/svg11.dtd"><svg t="1678339848428" class="icon" viewBox="0 0 1024 1024" version="1.1" xmlns="http://www.w3.org/2000/svg" p-id="3099" xmlns:xlink="http://www.w3.org/1999/xlink" width="200" height="200"><path d="M567.808 315.392c-3.584-5.12-4.096-11.264-2.56-17.408 16.384-45.568 92.672-244.736 145.92-201.728l14.336 11.264c7.68 6.144 9.216 17.408 3.584 25.088l-125.952 189.44c-7.68 11.264-23.04 11.264-30.72 0l-4.608-6.656z" fill="#537A54" p-id="3100"></path><path d="M203.264 542.208c0 62.464 49.664 113.152 110.592 113.152s110.592-50.688 110.592-113.152-49.664-113.152-110.592-113.152-110.592 50.688-110.592 113.152z" fill="#212C7A" p-id="3101"></path><path d="M262.144 665.6c0 53.248 41.984 96.768 95.232 96.768 52.224 0 95.232-43.52 95.232-96.768s-41.984-96.768-95.232-96.768c-53.248 0-95.232 43.52-95.232 96.768z" fill="#415099" p-id="3102"></path><path d="M506.88 410.624c0 61.44 48.64 111.616 109.056 111.616s109.056-49.664 109.056-111.616c0-61.44-48.64-111.616-109.056-111.616S506.88 349.184 506.88 410.624z" fill="#3F56A8" p-id="3103"></path><path d="M349.696 475.136c0 53.248 41.984 96.768 94.208 96.768s95.232-43.008 95.232-96.768c0-53.248-41.984-96.768-95.232-96.768-51.2 0-94.208 43.52-94.208 96.768z" fill="#415099" p-id="3104"></path><path d="M591.36 509.44c0 62.464 49.664 113.152 110.592 113.152 60.928 0 110.592-50.688 110.592-113.152s-49.664-113.152-110.592-113.152c-60.928 0-110.592 50.688-110.592 113.152z" fill="#2E3D89" p-id="3105"></path><path d="M467.456 702.976c62.464 25.088 126.976 10.24 152.576-57.344 25.6-67.072-3.584-131.072-68.608-152.576-72.192-21.504-132.096-5.12-157.696 61.952s3.584 142.336 66.048 167.424l7.68-19.456z" fill="#212C7A" p-id="3106"></path><path d="M557.568 676.864c0 53.248 41.984 96.768 94.208 96.768s95.232-43.008 95.232-96.768c0-53.248-41.984-96.768-94.208-96.768-53.248 0-95.232 42.496-95.232 96.768z" fill="#415099" p-id="3107"></path><path d="M229.888 370.688c0 62.464 49.664 113.152 110.592 113.152 61.952 1.024 111.616-50.688 111.616-113.152s-49.664-113.152-110.592-113.152c-61.952 0-111.616 50.176-111.616 113.152z" fill="#2F3F8E" p-id="3108"></path><path d="M439.296 759.296c0 53.248 41.984 96.768 95.232 96.768 52.224 0 95.232-43.52 95.232-96.768s-41.984-96.768-95.232-96.768-95.232 43.52-95.232 96.768z" fill="#3F56A8" p-id="3109"></path><path d="M390.144 340.992c0 64 50.688 115.712 112.64 115.712 62.976 0 112.64-51.712 112.64-115.712S564.736 225.28 502.784 225.28s-112.64 51.712-112.64 115.712z m-76.288 460.288c0 53.248 41.984 96.768 95.232 96.768 52.224 0 95.232-43.52 95.232-96.768 0-53.248-41.984-96.768-95.232-96.768s-95.232 42.496-95.232 96.768z" fill="#212C7A" p-id="3110"></path></svg>