<?xml version="1.0" standalone="no"?><!DOCTYPE svg PUBLIC "-//W3C//DTD SVG 1.1//EN" "http://www.w3.org/Graphics/SVG/1.1/DTD/svg11.dtd"><svg t="1678339859968" class="icon" viewBox="0 0 1024 1024" version="1.1" xmlns="http://www.w3.org/2000/svg" p-id="3430" xmlns:xlink="http://www.w3.org/1999/xlink" width="200" height="200"><path d="M752.35260576 463.58426864c-16.82899753-126.86475061-158.1925768-177.3517432-158.19257678-177.35174321s-228.22709728-54.75896889-315.86733828 73.78868148c-100.71507753 125.18185086-40.13068642 339.03957333-10.87412148 427.58599112 6.86105283 20.45370469 34.56417185 33.78744889 55.66514568 32.49291061C435.19072922 812.46233283 758.82529712 774.66181531 752.35260576 463.58426864z" fill="#DD435D" p-id="3431"></path><path d="M745.49155292 349.92380839c-18.12353581-43.23757827-31.06891852-62.65565235-66.40981334-88.41696394l48.41573137-45.95610864s6.2137837-16.05227457-10.35630618-21.87769679c-20.45370469-6.99050667-48.67463902 62.52619852-48.67463901 62.52619851l0.12945382 0.12945383c-45.56774717-21.23042765-88.02860247-24.3373195-88.02860246-24.33731951s-132.17235753-9.45012939-200.26507061 32.49291062c-56.95968395 35.21144098-41.94304 45.3088395 50.74590024 41.94304 88.80532543-3.3657995 100.71507753-6.60214518 91.91221728 26.66748839-25.63185778 97.86709333 64.3385521 41.68413235 64.33855211 41.68413234l43.36703209-37.15324838s56.18296098 160.00493037 95.66637828 168.67833679c39.74232494 8.67340642 33.14017975-122.85168197 19.15916641-156.38022322z" fill="#8DD37F" p-id="3432"></path><path d="M421.98643885 404.68277728c-9.32067555 0-9.32067555 13.07483653 0 13.07483655 9.0617679 0.12945383 9.0617679-13.07483653 0-13.07483655zM513.12193317 436.78732642c-9.32067555 0-9.32067555 13.07483653 0 13.07483655 9.32067555 0.12945383 9.32067555-13.07483653 0-13.07483655zM609.5650344 543.45728c-0.12945383-1.16508445-0.9061768-1.94180741-1.9418074-2.84798419-0.51781531-0.51781531-0.9061768-0.77672297-1.55344593-1.55344594-0.64726914-0.64726914-1.4239921-1.16508445-2.4596227-1.29453826-0.9061768-0.51781531-1.55344592-0.64726914-2.84798422-0.64726914-0.9061768 0-1.94180741 0.12945383-2.84798419 0.64726914-0.9061768 0.12945383-1.55344592 0.64726914-2.45962271 1.29453826-0.51781531 0.51781531-0.64726914 0.77672297-1.16508444 1.29453828-0.64726914 1.16508445-0.9061768 2.20071506-0.90617679 3.3657995 0 0.64726914 0.12945383 1.16508445 0.12945382 1.81235359 0.12945383 1.16508445 0.9061768 1.94180741 1.94180741 2.84798419 0.51781531 0.51781531 0.9061768 0.77672297 1.55344592 1.55344593 0.64726914 0.64726914 1.4239921 1.16508445 2.45962271 1.29453827 0.9061768 0.51781531 1.55344592 0.64726914 2.84798421 0.64726913 0.9061768 0 1.94180741-0.12945383 2.8479842-0.64726913 0.9061768-0.12945383 1.55344592-0.64726914 2.45962271-1.29453827l1.16508443-1.29453827c0.64726914-1.16508445 0.9061768-2.20071506 0.9061768-3.36579951-0.12945383-0.77672297-0.12945383-1.16508445-0.12945383-1.81235358zM454.86771095 615.69251555c-9.32067555 0-9.32067555 13.07483653 0 13.07483655 9.19122173 0 9.19122173-13.07483653 0-13.07483655zM440.62778996 526.88719013c-9.32067555 0-9.32067555 13.07483653 0 13.07483654 9.32067555 0.25890765 9.32067555-13.07483653 0-13.07483654zM337.06472823 521.0617679c-9.32067555 0-9.32067555 13.07483653 0 13.07483655 9.0617679 0.12945383 9.19122173-13.07483653 0-13.07483655zM403.08618009 694.27098864c-9.32067555 0-9.32067555 13.07483653 0 13.07483654 9.0617679 0 9.0617679-13.07483653 0-13.07483654zM558.56022651 650.51559506c-9.32067555 0-9.32067555 13.07483653 0 13.07483655s9.19122173-13.07483653 0-13.07483655z" fill="#181917" p-id="3433"></path><path d="M727.2385633 372.06041283c-2.45962272-8.15559111-16.31118222-5.17815309-13.72210568 3.36579952 7.37886815 24.20786569 9.32067555 48.93354667 5.95487604 73.9181353-1.16508445 8.28504494 13.07483653 8.67340642 14.239921 0.12945383 3.49525333-26.02021925 1.4239921-52.29934617-6.47269136-77.41338865zM716.23498799 342.8038479c-1.16508445-1.94180741-2.07126124-3.62470717-3.36579952-5.6959684-1.94180741-2.97743803-6.73159902-4.14252247-9.70903704-2.4596227-3.3657995 1.94180741-4.53088395 5.69596839-2.58907653 8.93231406 1.16508445 1.94180741 2.07126124 3.62470717 3.3657995 5.69596839 1.94180741 2.97743803 6.73159902 4.14252247 9.70903703 2.45962272 3.3657995-1.81235358 4.53088395-5.56651457 2.58907656-8.93231407z" fill="#FFFFFF" p-id="3434"></path></svg>