<?xml version="1.0" standalone="no"?><!DOCTYPE svg PUBLIC "-//W3C//DTD SVG 1.1//EN" "http://www.w3.org/Graphics/SVG/1.1/DTD/svg11.dtd"><svg t="1678339834189" class="icon" viewBox="0 0 1024 1024" version="1.1" xmlns="http://www.w3.org/2000/svg" p-id="2937" xmlns:xlink="http://www.w3.org/1999/xlink" width="200" height="200"><path d="M556.5 877.4c0 18.6-15 33.7-33.6 33.7h-1.8c1.7 0.3 3.4 0.4 5.1 0.4h1.3c18.5 0 33.6-15.1 33.6-33.7V688.9h-4.6v188.5z" fill="#EFAA5E" p-id="2938"></path><path d="M522.9 911.4c18.5 0 33.6-15 33.6-33.6V689.9h-68.4v187.9c0 18.4 14.8 33.3 33.1 33.6h1.7z" fill="#E0B173" p-id="2939"></path><path d="M731.6 141.7c-11.7-35.8-28.9-33.6-31.5-36.2s-348.2-2.8-357.1-1.6c-17.3 2.4-28.2 10.5-31.3 19-4.2 11.5-5.8 17.3-5.6 19.7 7.4-16.5 23.9-27.9 43.1-27.9h323.2c26.1 0 47.3 21.2 47.3 47.3v480.8c0 21.9-14.9 40.4-35.2 45.7l8.2-0.6c0.7 0 1.4-0.1 2-0.2 2.8-0.7 9.6-2.5 10.2-2.8 3.7-1.8 10.7-5 13.8-8.7 14.9-17.5 14-31.8 14-37 0.1-65.8 8.9-467.1-1.1-497.5z" fill="#E073AA" p-id="2940"></path><path d="M719.8 642.7V161.9c0-26.1-21.2-47.3-47.3-47.3H349.3c-19.2 0-35.7 11.5-43.1 27.9-2.6 5.9-4.1 12.4-4.1 19.3v480.8c0 26.1 21.2 47.3 47.3 47.3H672.6c4.2 0 8.2-0.5 12.1-1.6 20.1-5.3 35.1-23.7 35.1-45.6z m-227.9-38.8V196.1c0-12.2 9.9-22.1 22.1-22.1h0.8c12.2 0 22.1 9.9 22.1 22.1v407.8c0 12.2-9.9 22.1-22.1 22.1h-0.8c-12.2 0-22.1-9.9-22.1-22.1z m-90.6 0c0 12.2-9.9 22.1-22.1 22.1h-0.8c-12.2 0-22.1-9.9-22.1-22.1V196.1c0-12.2 9.9-22.1 22.1-22.1h0.8c12.2 0 22.1 9.9 22.1 22.1v407.8z m245.3 24.4h-0.8c-12.2 0-22.1-9.9-22.1-22.1V198.4c0-12.2 9.9-22.1 22.1-22.1h0.8c12.2 0 22.1 9.9 22.1 22.1v407.8c0 12.2-9.9 22.1-22.1 22.1z" fill="#FC81B4" p-id="2941"></path><path d="M379.2 174h-0.8c-12.2 0-22.1 9.9-22.1 22.1v407.8c0 12.2 9.9 22.1 22.1 22.1h0.8c12.2 0 22.1-9.9 22.1-22.1V196.1c0-12.2-9.9-22.1-22.1-22.1zM513.9 626h0.8c12.2 0 22.1-9.9 22.1-22.1V196.1c0-12.2-9.9-22.1-22.1-22.1h-0.8c-12.2 0-22.1 9.9-22.1 22.1v407.8c0.1 12.2 10 22.1 22.1 22.1zM668.7 198.4c0-12.2-9.9-22.1-22.1-22.1h-0.8c-12.2 0-22.1 9.9-22.1 22.1v407.8c0 12.2 9.9 22.1 22.1 22.1h0.8c12.2 0 22.1-9.9 22.1-22.1V198.4z" fill="#FFB3DF" p-id="2942"></path></svg>