<?xml version="1.0" standalone="no"?><!DOCTYPE svg PUBLIC "-//W3C//DTD SVG 1.1//EN" "http://www.w3.org/Graphics/SVG/1.1/DTD/svg11.dtd"><svg t="1678339856937" class="icon" viewBox="0 0 1024 1024" version="1.1" xmlns="http://www.w3.org/2000/svg" p-id="3267" xmlns:xlink="http://www.w3.org/1999/xlink" width="200" height="200"><path d="M877.3 322.6c-7 13.6-32.9 26.2-75.8 36.9-42.2 10.5-98.4 18.5-162.4 23.1-3.5 0.3-7.1 0.5-10.7 0.7-37.3 2.4-76.3 3.6-115.8 3.6-37.5 0-74.6-1.1-110.3-3.3-1.8-0.1-3.7-0.2-5.5-0.4-68.5-4.4-128.3-12.7-173-23.8-47.2-11.8-73.8-25.9-77.3-41-1.8 8.4-2.7 17-2.7 25.7 0 1.6-0.1 3.1-0.1 4.6-0.1 3.1-0.2 6 0.1 8.9 0.1 1.2 12.2 123.3 76.3 233.9 1 1.8 2.1 3.5 3.1 5.3 0.2 0.2 0.4 0.4 0.4 0.7 35.6 59.5 79.4 104.1 131 133.6 1 0.4 1.9 0.9 2.7 1.6 46.8 26.1 99.9 39.9 159.1 41.1 2.7 0.1 5.5 0.1 8.2 0.1 291.2 0 343.7-334 351.3-401.5v-0.1c2.2-9.2 3.2-18.6 3.2-28.1 0.1-7.3-0.5-14.5-1.8-21.6z" fill="#6CAA4B" p-id="3268"></path><path d="M221.8 596.5c0.5-0.1 1.1 0 1.4 0.4-1-1.8-2.1-3.5-3.1-5.3C156 481 144 358.9 143.8 357.7c-0.3-2.9-0.2-5.8-0.1-8.9 0.1-1.5 0.1-3.1 0.1-4.6 0-8.7 0.9-17.3 2.7-25.7-0.3-1.2-0.4-2.3-0.4-3.5v-0.2c0.1-0.3 0.2-0.6 0.2-0.9h-0.2c-2.5 9.8-3.7 20-3.7 30.3 0 1.5-0.1 3.1-0.1 4.6-0.1 3-0.2 6.1 0.1 9.1 0.1 1.2 12.2 123.6 76.5 234.5 0.9 1.5 1.7 2.9 2.6 4.4 0.1-0.2 0.2-0.2 0.3-0.3zM344.9 725.7c0.3 0.5 1.1 0.8 1.6 1l2.1 1.2c1.7 1 3.4 2 5.1 2.9 0.3 0.1 0.5 0.3 0.8 0.4-51.6-29.5-95.4-74.1-131-133.6v0.1c0.1 0.2 0.2 0.3 0.2 0.5 0.1 0.1 0.1 0.2 0.2 0.3 0.1 0.1 0.2 0.2 0.3 0.4 0.2 0.3 0.3 0.6 0.4 0.9v0.1c0.1 0.2 0.3 0.5 0.4 0.7 1 1.7 2.1 3.3 3.1 5.1 0.5 0.8 0.9 1.6 1.3 2.4l0.1 0.1c0.1 0.2 0.2 0.3 0.3 0.4l0.1 0.1s0 0.1 0.1 0.1l0.1 0.1 0.1 0.1 0.1 0.1c0 0.1 0.1 0.1 0.1 0.2 0.1 0.1 0.2 0.2 0.3 0.4 0.1 0.2 0.2 0.5 0.2 0.8 0 0.1 0 0.3-0.1 0.4 0 0.1-0.1 0.2-0.1 0.2 0.4 0.9 0.9 1.8 1.2 2.8 28 42.9 61.1 77.8 98.6 103.8 3.9 2.7 7.9 5.3 11.9 7.8 0.9-0.6 2-0.7 2.5 0.2zM878.3 320.2c-0.3 0.8-0.6 1.6-1 2.4 1.3 7.1 1.9 14.3 1.9 21.6 0 9.5-1.1 19-3.2 28.1v0.1c-7.6 67.5-60.1 401.5-351.3 401.5-2.7 0-5.5 0-8.2-0.1-59.2-1.3-112.3-15-159.1-41.1 0.3 0.2 0.5 0.5 0.8 0.7 0.4 0.5 0.7 1 1 1.6 46.6 25.5 99.3 39 157.3 40.2 2.8 0.1 5.5 0.1 8.2 0.1 65.3 0 123.4-16.8 172.8-49.9 42.5-28.5 78.9-69.3 108.1-121.2 51.5-91.5 67.4-192.5 71.8-231.7 2.2-9.2 3.3-18.8 3.3-28.4-0.1-8-0.8-16.1-2.4-23.9z" fill="#EBF7EE" p-id="3269"></path><path d="M224.2 358c44.6 11.1 104.3 19.4 172.7 23.8 1.8 0.1 3.7 0.2 5.5 0.4 35.6 2.2 72.7 3.3 110.2 3.3 39.5 0 78.4-1.2 115.7-3.6 3.6-0.2 7.1-0.5 10.6-0.7 63.9-4.6 120-12.6 162.1-23.1 49.3-12.3 76.5-27.5 76.6-42.9-0.7-2.7-1.4-5.3-2.2-7.8-6.7-11.6-28.8-22.9-63.9-32.6-34.6-9.5-81.1-17.4-134.6-22.6-3.5-0.3-7-0.7-10.6-1-48.3-4.4-100-6.6-153.8-6.6-52.1 0-102.3 2.1-149.4 6.2l-4.3 0.4c-114.5 10.4-194.6 31.8-208.9 56 0 0 0 0.1-0.1 0.1l-0.1 0.2c-0.8 2.6-1.6 5.2-2.2 7.6 0.3 15.3 27.5 30.6 76.7 42.9z m445.2-36.4c-0.3 8.1-16.8 0.4-16.8 0.4s17.1-8.5 16.8-0.4z m-14.6-29.9c3.8 7.2-14.4 8.7-14.4 8.7s10.6-15.8 14.4-8.7z m-11 65.2c-3.3 7.4-15.8-6-15.8-6s19.1-1.4 15.8 6z m-16.5-80c4.5 5.5-13 10.5-13 10.5s8.5-16 13-10.5zM580 366.6c-5.3 6.2-12.2-11.6-12.2-11.6s17.5 5.4 12.2 11.6z m-23-55.9c-0.2 8.1-16.8-1.3-16.8-1.3s17-6.8 16.8 1.3z m-13.8-25.5c4 7.1-15.1 7.5-15.1 7.5s11.1-14.6 15.1-7.5z m-25.7 35.2s6.6 17.1-1.5 16.8c-8.2-0.3 1.5-16.8 1.5-16.8zM486 284.6c3.8-7.2 14.4 8.7 14.4 8.7s-18.3-1.6-14.4-8.7z m3.1 27.2s-16.6 7.8-16.8-0.4c-0.3-8.1 16.8 0.4 16.8 0.4z m-9.9 45.5s-7.2 16.8-12.8 10.9c-5.6-5.9 12.8-10.9 12.8-10.9zM419 274.5c5-6.4 12.7 11 12.7 11s-17.7-4.6-12.7-11z m-2.5 74.6s-12.4 13.4-15.8 6c-3.2-7.5 15.8-6 15.8-6zM376 289.3c3.8-7.2 14.4 8.7 14.4 8.7s-18.2-1.6-14.4-8.7z m-2.8 31.4s-16.6 7.8-16.8-0.4c-0.3-8.1 16.8 0.4 16.8 0.4zM149.3 306.7z" fill="#E54E4E" p-id="3270"></path><path d="M146.1 315c0 1.2 0.2 2.3 0.4 3.5 3.5 15.1 30.1 29.2 77.3 41 44.7 11.2 104.5 19.4 173 23.8 1.8 0.1 3.7 0.2 5.5 0.4 35.6 2.2 72.7 3.3 110.3 3.3 39.5 0 78.5-1.2 115.8-3.6 3.6-0.2 7.1-0.5 10.7-0.7 64-4.6 120.1-12.6 162.4-23.1 43-10.7 68.8-23.4 75.8-36.9 0.4-0.8 0.7-1.6 1-2.4 0.6-1.7 0.9-3.5 0.9-5.2v-0.2c-0.7-2.7-1.5-5.5-2.3-8l-0.1-0.1c-13.9-24.2-88.5-45.1-199.7-56-3.5-0.3-7-0.7-10.6-1-48.4-4.4-100.1-6.6-153.9-6.6-52.1 0-102.4 2.1-149.6 6.2l-4.3 0.4c-116.8 10.6-195.3 31.8-210.1 56.8l0.7 0.4-0.7-0.3s0 0.1-0.1 0.1l-0.1 0.1v0.2c-0.8 2.4-1.4 4.7-2 7-0.1 0.3-0.2 0.6-0.2 0.9h-0.1z m3.8-7.6l0.1-0.2 0.1-0.1c14.3-24.2 94.4-45.6 208.9-56l4.3-0.4c47.1-4.1 97.4-6.2 149.4-6.2 53.7 0 105.5 2.2 153.8 6.6 3.5 0.3 7.1 0.7 10.6 1 53.5 5.2 100 13.1 134.6 22.6 35 9.7 57.1 20.9 63.9 32.6 0.8 2.5 1.6 5.1 2.2 7.8-0.1 15.4-27.3 30.6-76.6 42.9-42.2 10.5-98.3 18.5-162.2 23-3.5 0.3-7.1 0.5-10.6 0.7-37.3 2.4-76.2 3.6-115.7 3.6-37.5 0-74.5-1.1-110.2-3.3-1.8-0.1-3.7-0.2-5.5-0.4-68.4-4.4-128.2-12.7-172.7-23.8-49.3-12.3-76.4-27.5-76.6-42.9 0.6-2.3 1.3-4.9 2.2-7.5z" fill="#F7F7F7" p-id="3271"></path><path d="M500.4 293.3s-10.6-15.9-14.4-8.7c-3.9 7.1 14.4 8.7 14.4 8.7zM489.1 311.8s-17.1-8.5-16.8-0.4c0.3 8.2 16.8 0.4 16.8 0.4zM515.9 337.2c8.1 0.3 1.5-16.8 1.5-16.8s-9.6 16.5-1.5 16.8zM557 310.7c0.2-8.1-16.8-1.3-16.8-1.3s16.6 9.5 16.8 1.3zM543.2 285.2c-4-7.1-15.1 7.5-15.1 7.5s19.1-0.4 15.1-7.5zM390.4 298s-10.6-15.9-14.4-8.7c-3.8 7.1 14.4 8.7 14.4 8.7zM431.7 285.5s-7.8-17.5-12.7-11c-5 6.4 12.7 11 12.7 11zM654.8 291.7c-3.8-7.2-14.4 8.7-14.4 8.7s18.2-1.5 14.4-8.7zM627.3 276.9c-4.5-5.5-13 10.5-13 10.5s17.5-5 13-10.5zM373.2 320.7s-17.1-8.5-16.8-0.4c0.2 8.2 16.8 0.4 16.8 0.4zM669.4 321.6c0.3-8.1-16.8 0.4-16.8 0.4s16.5 7.7 16.8-0.4zM416.5 349.1s-19.1-1.4-15.8 6c3.4 7.4 15.8-6 15.8-6zM643.8 356.9c3.3-7.4-15.8-6-15.8-6s12.5 13.5 15.8 6zM479.2 357.3s-18.4 5-12.8 10.9c5.6 5.9 12.8-10.9 12.8-10.9zM580 366.6c5.3-6.2-12.2-11.6-12.2-11.6s7 17.8 12.2 11.6z" p-id="3272"></path><path d="M267.4 552.7c-2-19.4-10.9-36.3-19.1-53.7-3.2-6.9-7-15-7.2-22.3-0.1-2.8 0.6-5.9 1.4-8 0.6-1.5 3.4-6.3 5.1-8.8 9.5-14.3 19.8-27.3 19.4-45.5-0.3-11.3-3.8-22.2-8.9-32.2-5.6-10.9-14.1-18.1-26.4-19.6-7.5-0.9-13.9 7.1-14 14-0.1 6.1 7.3 11.4 12.1 13.7 0.3 0.5 1 1 1.4 1.4 0 0.1 0.1 0.1 0.1 0.2 2 2.8 3.6 6.2 4.6 8.9 1.3 3.4 2.4 7 2.9 10.7 0.2 1.4 0.2 6.3 0 7.6-0.3 1.8-0.9 3.5-1.4 5.2 0 0-0.2 0.4-0.3 0.7-0.2 0.4-0.8 1.6-0.9 1.7-1.6 3-3.4 5.8-5.3 8.5-3.8 5.5-8 10.8-11.1 16.7-8.7 16.1-7.6 32.9-0.8 49.4 6 14.7 14.1 28.1 18.4 42.9 4.2 14.5 2.7 30.2-6.5 41.9-4.7 5.9-5.8 14 0 19.8 4.9 4.9 15.1 6 19.8 0 11.8-15.1 18.7-33.7 16.7-53.2zM809.4 559.6c-2-19.4-10.9-36.3-19.1-53.7-3.2-6.9-7-15-7.2-22.3-0.1-2.8 0.6-5.9 1.4-8 0.6-1.5 3.4-6.3 5.1-8.8 9.5-14.3 19.8-27.3 19.4-45.5-0.3-11.3-3.8-22.2-8.9-32.2-5.6-10.9-14.1-18.1-26.4-19.6-7.5-0.9-13.9 7.1-14 14-0.1 6.1 7.3 11.4 12.1 13.7 0.3 0.5 1 1 1.4 1.4 0 0.1 0.1 0.1 0.1 0.2 2 2.8 3.6 6.2 4.6 8.9 1.3 3.4 2.4 7 2.9 10.7 0.2 1.4 0.2 6.3 0 7.6-0.3 1.8-0.9 3.5-1.4 5.2 0 0-0.2 0.4-0.3 0.7-0.2 0.4-0.8 1.6-0.9 1.7-1.6 3-3.4 5.8-5.3 8.5-3.8 5.5-8 10.8-11.1 16.7-8.7 16.1-7.6 32.9-0.8 49.4 6 14.7 14.1 28.1 18.4 42.9 4.2 14.5 2.7 30.2-6.5 41.9-4.7 5.9-5.8 14 0 19.8 4.9 4.9 15.1 6 19.8 0 11.8-15.1 18.7-33.7 16.7-53.2zM381.4 648.1c-2-27.2-10.9-51-19.1-75.5-3.2-9.7-7-21.1-7.2-31.4-0.1-4 0.6-8.3 1.4-11.3 0.6-2.1 3.4-8.8 5.1-12.4 9.5-20.1 19.8-38.4 19.4-64-0.3-15.9-3.8-31.3-8.9-45.3-5.6-15.3-14.1-25.4-26.4-27.6-7.5-1.3-13.9 10-14 19.7-0.1 8.6 7.3 16 12.1 19.2 0.3 0.7 1 1.4 1.4 2 0 0.1 0.1 0.2 0.1 0.3 2 4 3.6 8.8 4.6 12.5 1.3 4.8 2.4 9.9 2.9 15 0.2 1.9 0.2 8.8 0 10.6-0.3 2.5-0.9 4.9-1.4 7.3 0 0-0.2 0.5-0.3 1-0.2 0.6-0.8 2.2-0.9 2.4-1.6 4.2-3.4 8.1-5.3 12-3.8 7.7-8 15.2-11.1 23.5-8.7 22.6-7.6 46.2-0.8 69.5 6 20.7 14.1 39.5 18.4 60.3 4.2 20.4 2.7 42.4-6.5 59-4.7 8.4-5.8 19.7 0 27.8 4.9 6.8 15.1 8.4 19.8 0 11.8-21 18.7-47.2 16.7-74.6zM687.7 657.7c-2-27.7-10.9-52-19.1-76.8-3.2-9.8-7-21.4-7.2-32-0.1-4 0.6-8.4 1.4-11.5 0.6-2.2 3.4-9 5.1-12.6 9.5-20.5 19.8-39.1 19.4-65.2-0.3-16.1-3.8-31.8-8.9-46.1-5.6-15.6-14.1-25.9-26.4-28.1-7.5-1.3-13.9 10.2-14 20-0.1 8.8 7.3 16.3 12.1 19.6 0.3 0.7 1 1.4 1.4 2 0 0.1 0.1 0.2 0.1 0.3 2 4 3.6 8.9 4.6 12.7 1.3 4.9 2.4 10.1 2.9 15.3 0.2 1.9 0.2 9 0 10.8-0.3 2.5-0.9 5-1.4 7.4 0 0-0.2 0.6-0.3 1.1-0.2 0.6-0.8 2.2-0.9 2.5-1.6 4.2-3.4 8.3-5.3 12.2-3.8 7.9-8 15.5-11.1 23.9-8.7 23-7.6 47.1-0.8 70.8 6 21 14.1 40.2 18.4 61.4 4.2 20.8 2.7 43.2-6.5 60-4.7 8.5-5.8 20.1 0 28.4 4.9 6.9 15.1 8.6 19.8 0 11.9-21.6 18.8-48.2 16.7-76.1zM532.6 684.6c-2.2-30-11.8-56.3-20.6-83.3-3.5-10.7-7.6-23.2-7.8-34.6-0.1-4.4 0.6-9.1 1.5-12.4 0.6-2.3 3.6-9.7 5.5-13.7 10.3-22.2 21.4-42.3 20.9-70.6-0.3-17.5-4.1-34.5-9.6-50-6-16.9-15.2-28-28.6-30.4-8.1-1.4-15 11-15.1 21.7-0.1 9.5 7.9 17.7 13.1 21.2 0.4 0.8 1 1.5 1.5 2.2 0.1 0.1 0.1 0.2 0.2 0.3 2.1 4.4 3.9 9.7 5 13.8 1.4 5.3 2.6 10.9 3.2 16.5 0.2 2.1 0.2 9.7 0 11.7-0.3 2.7-0.9 5.4-1.5 8 0 0-0.2 0.6-0.3 1.1-0.3 0.7-0.9 2.4-0.9 2.7-1.7 4.6-3.7 9-5.7 13.2-4.1 8.5-8.6 16.8-12 25.9-9.4 25-8.2 51-0.9 76.7 6.5 22.8 15.3 43.5 19.9 66.5 4.6 22.5 2.9 46.8-7 65.1-5 9.2-6.3 21.7 0 30.7 5.2 7.5 16.3 9.3 21.4 0 12.5-23.3 20-52.1 17.8-82.3z" fill="#527F38" p-id="3273"></path></svg>